<svg preserveAspectRatio="none" overflow="visible" style="display: block;" width="26.0752" height="16.9594" viewBox="0 0 26.0752 16.9594" fill="none" xmlns="http://www.w3.org/2000/svg">
<g id="Subtract">
<path d="M25.0752 0C25.6274 0.000143574 26.0752 0.447804 26.0752 1V6.31738C26.0751 6.93221 25.7917 7.51255 25.3076 7.8916L14.2705 16.5342C13.5463 17.1012 12.5289 17.1012 11.8047 16.5342L0.767578 7.8916C0.283485 7.51255 5.82293e-05 6.93221 0 6.31738V1C0 0.44777 0.447791 8.90101e-05 1 0H25.0752ZM3.48047 4.83301V6.83301H23.4805V4.83301H3.48047Z" fill="url(#paint0_linear_40000712_14203)"/>
<path d="M25.0752 0C25.6274 0.000143574 26.0752 0.447804 26.0752 1V6.31738C26.0751 6.93221 25.7917 7.51255 25.3076 7.8916L14.2705 16.5342C13.5463 17.1012 12.5289 17.1012 11.8047 16.5342L0.767578 7.8916C0.283485 7.51255 5.82293e-05 6.93221 0 6.31738V1C0 0.44777 0.447791 8.90101e-05 1 0H25.0752ZM3.48047 4.83301V6.83301H23.4805V4.83301H3.48047Z" fill="var(--fill-1, black)" fill-opacity="0.2"/>
</g>
<defs>
<linearGradient id="paint0_linear_40000712_14203" x1="13.8117" y1="-4.52821" x2="13.7881" y2="16.9603" gradientUnits="userSpaceOnUse">
<stop stop-color="#1C2F4E"/>
<stop offset="0.509615" stop-color="#12427E"/>
<stop offset="1" stop-color="#0D305B"/>
</linearGradient>
</defs>
</svg>
